<svg width="24" height="24" viewBox="0 0 24 24" fill="none" xmlns="http://www.w3.org/2000/svg"><path fill-rule="evenodd" clip-rule="evenodd" d="M3 3a2 2 0 012-2h10a1 1 0 01.707.293l5 5A1 1 0 0121 7v14a2 2 0 01-2 2H5a2 2 0 01-2-2V3zm11.586 0H5v18h14V7.414L14.586 3zM8 9.004a1 1 0 011-1h6a1 1 0 110 2h-1.996L13 10c-.5 0-.444.004-.996.004H12c-.55-.002-.5-.004-1-.004l.004.004H9a1 1 0 01-1-1z" fill="#000" fill-opacity=".85"/><path d="M8 15.5a1 1 0 011-1h6a1 1 0 110 2h-1.996L13 16.496c-.5 0-.444.004-.996.004H12c-.55-.002-.5-.004-1-.004l.004.004H9a1 1 0 01-1-1z" fill="#000" fill-opacity=".85"/></svg>