<svg width="24" height="24" viewBox="0 0 24 24" fill="none" xmlns="http://www.w3.org/2000/svg">
<path fill-rule="evenodd" clip-rule="evenodd" d="M5.74744 1.8415C5.93733 1.62448 6.21165 1.5 6.50001 1.5H17.5C17.7884 1.5 18.0627 1.62448 18.2526 1.8415L21.7526 5.8415C21.9678 6.08748 22.0409 6.40917 21.9786 6.70619C21.9927 6.80208 22 6.90019 22 7V20C22 21.1046 21.1046 22 20 22H4.00001C2.89544 22 2.00001 21.1046 2.00001 20V7C2.00001 6.90019 2.00733 6.80208 2.02144 6.70619C1.9591 6.40917 2.0322 6.08748 2.24744 5.8415L5.74744 1.8415ZM5.64128 5H18.3587L17.0462 3.5H6.95378L5.64128 5ZM20 7H4.00001V20H20V7ZM7.97491 12.0042C7.97491 11.4519 8.42263 11.0042 8.97491 11.0042H14.9749C15.5272 11.0042 15.9749 11.4519 15.9749 12.0042C15.9749 12.5564 15.5272 13.0042 14.9749 13.0042H8.97491C8.42263 13.0042 7.97491 12.5564 7.97491 12.0042Z" fill="black" fill-opacity="0.85"/>
</svg>
