<svg width="89" height="89" viewBox="0 0 89 89" fill="none" xmlns="http://www.w3.org/2000/svg">
<path d="M45 26V53.5M45 53.5L58 41.5M45 53.5L32 41.5M41 63H49" stroke="#019FFF" stroke-width="5" stroke-linecap="round"/>
<path d="M73.6501 72.8183C69.4962 77.3876 64.5192 80.5648 60.0183 81.3246C60.0052 81.2431 59.992 81.1595 59.9789 81.0739C59.7516 79.5927 59.5333 77.5473 59.5623 75.2821C59.6216 70.6533 60.7018 65.6255 64.2134 62.3205C67.8463 58.9013 72.5232 57.8645 76.5099 57.749C78.4254 57.6934 80.1186 57.8537 81.3516 58.0336C80.6837 62.773 77.8078 68.2449 73.6501 72.8183ZM54.9871 81.5H29C17.1259 81.5 7.5 71.8741 7.5 60V29C7.5 17.1259 17.1259 7.5 29 7.5H60C71.8741 7.5 81.5 17.1259 81.5 29V53.0076C80.1166 52.8307 78.3468 52.6936 76.3651 52.751C71.7268 52.8855 65.6537 54.0987 60.7866 58.6795C55.7982 63.3745 54.6284 70.0967 54.5627 75.2179C54.5314 77.6593 54.7485 79.8555 54.9871 81.5Z" stroke="black" stroke-width="5"/>
</svg>
