<svg id="Layer_1" data-name="Layer 1" xmlns="http://www.w3.org/2000/svg" viewBox="0 0 1366 768"><defs><style>.cls-1{fill:#c7c7c7;}</style></defs><path class="cls-1" d="M1342.07831,259.19325c-1.445,12.67194-6.92879,22.89841-13.15362,34.01414l-1.14866,1.63031a153.8953,153.8953,0,0,1-64.87886,59.8397,177.91894,177.91894,0,0,1-55.31931,17.26642l2.00079,1.33388c5.669,3.96462,28.56747,19.56369,46.5379,52.31805,14.07993,25.64027,24.5287,60.91422,23.30595,105.8959,0,.40756-.03709.81513-.03709,1.25979.14818,5.11325-.704,46.94542-23.89882,78.81052-18.67439,25.60323-48.42752,48.57574-89.18521,57.83885l30.67944,37.7194c2.18606,2.74189.667,6.70649-2.853,6.70649H927.27614a1.804,1.804,0,0,1-.44461-.037h0a4.03122,4.03122,0,0,1-2.74184-1.51914L780.10391,537.346l-2.22314-2.70485L665.83418,621.82551a4.2157,4.2157,0,0,1-2.51958.85223l-200.97245.11117a4.16368,4.16368,0,0,1-4.07577-3.29767l-8.11449-38.08993L350.14739,712.45577a3.49346,3.49346,0,0,1-2.74189,1.37093H26.82779a3.43934,3.43934,0,0,1-3.44588-3.4459,3.35261,3.35261,0,0,1,.6299-1.9638l346.73672-494.65L337.69778,59.85113a4.18085,4.18085,0,0,1,3.1865-4.965,3.65442,3.65442,0,0,1,.88926-.11115l268.33381-.741a4.16064,4.16064,0,0,1,4.03872,3.1124L689.4737,343.96923,800.29754,212.1737a4.13349,4.13349,0,0,1,5.8543-.51874,4.47958,4.47958,0,0,1,.59288.59285l69.28806,87.85134.40762.51875L974.481,56.03473c.22235-.59284.59287.0741,1.03748-.33347h0c.44462-.29642,1.0004-1.63031,1.59328-1.63031h268.25967c.92631.22232,1.70444.44463,2.03788.51873h.03709a.12915.12915,0,0,1,.07409.03706h.03708c1.4821.62989,6.03957,2.74188,6.07657,2.77893s42.27687,17.34054,66.91674,65.10114c14.19111,27.49291,23.78765,63.24851,23.78765,105.04367v5.2244C1344.37554,234.36813,1342.07831,259.19325,1342.07831,259.19325Z"/></svg>