<svg width="22" height="22" viewBox="0 0 22 22" fill="none" xmlns="http://www.w3.org/2000/svg">
<path d="M7 4C6.44772 4 6 4.44772 6 5C6 5.55228 6.44772 6 7 6H9C9.55228 6 10 5.55228 10 5C10 4.44772 9.55228 4 9 4H7Z" fill="black" fill-opacity="0.85"/>
<path fill-rule="evenodd" clip-rule="evenodd" d="M9.5 10.5C8.94771 10.5 8.5 10.9477 8.5 11.5V15.5C8.5 16.0523 8.94771 16.5 9.5 16.5H10.5C12.1568 16.5 13.5 15.1568 13.5 13.5C13.5 11.8432 12.1568 10.5 10.5 10.5H9.5ZM10.5 14.5V12.5C11.0523 12.5 11.5 12.9477 11.5 13.5C11.5 14.0523 11.0523 14.5 10.5 14.5Z" fill="black" fill-opacity="0.85"/>
<path fill-rule="evenodd" clip-rule="evenodd" d="M3 11.5C3 10.9477 3.44772 10.5 4 10.5H5.75C6.99263 10.5 8 11.5074 8 12.75C8 13.9926 6.99263 15 5.75 15H5V15.5C5 16.0523 4.55228 16.5 4 16.5C3.44772 16.5 3 16.0523 3 15.5V11.5ZM5 12.5H5.75C5.88807 12.5 6 12.6119 6 12.75C6 12.8881 5.88807 13 5.75 13H5V12.5Z" fill="black" fill-opacity="0.85"/>
<path d="M15 10.5C14.4477 10.5 14 10.9477 14 11.5V15.5C14 16.0523 14.4477 16.5 15 16.5C15.5523 16.5 16 16.0523 16 15.5V15H17.5C18.0523 15 18.5 14.5523 18.5 14C18.5 13.4477 18.0523 13 17.5 13H16V12.5H17.5C18.0523 12.5 18.5 12.0523 18.5 11.5C18.5 10.9477 18.0523 10.5 17.5 10.5H15Z" fill="black" fill-opacity="0.85"/>
<path fill-rule="evenodd" clip-rule="evenodd" d="M3 1C3 0.447715 3.44772 0 4 0H14C14.3038 0 14.5911 0.13809 14.7809 0.375305L18.7759 5.36906C18.916 5.54116 19 5.76077 19 6V8H20C21.1046 8 22 8.89543 22 10V17C22 18.1046 21.1046 19 20 19H19V21C19 21.5523 18.5523 22 18 22H4C3.44772 22 3 21.5523 3 21V19H2C0.89543 19 0 18.1046 0 17V10C0 8.89543 0.89543 8 2 8H3V1ZM17 7V8H5V2H12V6C12 6.55228 12.4477 7 13 7H17ZM17 20V19H5V20H17ZM20 10V17H2V10H20ZM14 2.60078V5H15.9194L14 2.60078Z" fill="black" fill-opacity="0.85"/>
</svg>
