<svg xmlns="http://www.w3.org/2000/svg" viewBox="0 0 18.58 22"><g id="Layer_2" data-name="Layer 2"><g id="Layer_1-2" data-name="Layer 1"><path d="M17.55,22H1a1,1,0,0,1-1-1V1A1,1,0,0,1,1,0H17.55a1,1,0,0,1,1,1V21A1,1,0,0,1,17.55,22ZM2.06,19.94H16.52V2.06H2.06Z"/><path d="M15.36,10.14l-3.48-6A1,1,0,0,0,11,3.59a1,1,0,0,0-.89.51L8.21,7.38,7.4,6a1,1,0,0,0-.9-.51A1,1,0,0,0,5.62,6l-2.4,4.16a1,1,0,0,0,0,1,1,1,0,0,0,.89.52H14.47a1,1,0,0,0,.89-.52A1,1,0,0,0,15.36,10.14ZM5.89,9.62,6.5,8.55l.52.9-.11.17Zm3.4,0L11,6.67l1.69,2.95Z"/><path d="M13.69,14.8H4.89a1,1,0,1,1,0-2.05h8.8a1,1,0,0,1,0,2.05Z"/><path d="M11.89,18.51H6.69a1,1,0,1,1,0-2.05h5.2a1,1,0,1,1,0,2.05Z"/></g></g></svg>