<svg width="24" height="24" viewBox="0 0 24 24" fill="none" xmlns="http://www.w3.org/2000/svg"><path fill-rule="evenodd" clip-rule="evenodd" d="M12 2C6.453 2 2 6.604 2 12.23V16a1 1 0 00-1 1v1a1 1 0 001 1v2a1 1 0 001 1h2a3 3 0 003-3v-3a3 3 0 00-3-3H4v-.77C4 7.662 7.605 4 12 4s8 3.661 8 8.23V13h-1a3 3 0 00-3 3v3a3 3 0 003 3h2a1 1 0 001-1v-2a1 1 0 001-1v-1a1 1 0 00-1-1v-3.77C22 6.605 17.547 2 12 2zm8 13h-1a1 1 0 00-1 1v3a1 1 0 001 1h1v-5zM4 20v-5h1a1 1 0 011 1v3a1 1 0 01-1 1H4z" fill="#000" fill-opacity=".85"/></svg>