<svg width="32" height="32" viewBox="0 0 32 32" fill="none" xmlns="http://www.w3.org/2000/svg">
<path fill-rule="evenodd" clip-rule="evenodd" d="M16.6744 5.04668C14.0032 4.87927 11.3627 5.69265 9.24862 7.33412C7.13458 8.97559 5.69238 11.3323 5.19278 13.9617C4.69318 16.5911 5.17053 19.3125 6.53522 21.615C6.67497 21.8508 6.71182 22.1336 6.63715 22.3973L5.46594 26.5339L9.60255 25.3627C9.86627 25.288 10.1491 25.3249 10.3849 25.4646C12.6873 26.8293 15.4087 27.3066 18.0381 26.807C20.6676 26.3074 23.0242 24.8652 24.6657 22.7512C26.3072 20.6372 27.1206 17.9967 26.9532 15.3254C26.7857 12.6542 25.6491 10.1359 23.7565 8.24333C21.8639 6.35076 19.3456 5.21408 16.6744 5.04668ZM8.02203 5.75441C10.5209 3.81415 13.642 2.85271 16.7995 3.05059C19.957 3.24847 22.9337 4.59206 25.1707 6.82911C27.4078 9.06617 28.7514 12.0428 28.9492 15.2003C29.1471 18.3578 28.1857 21.4789 26.2454 23.9778C24.3052 26.4766 21.5195 28.1814 18.4115 28.7719C15.4465 29.3352 12.3826 28.8477 9.74409 27.4012L6.00086 28.4611C5.66006 28.5598 5.29902 28.5655 4.95523 28.4776C4.60981 28.3892 4.29451 28.2096 4.04239 27.9574C3.79027 27.7053 3.61062 27.39 3.52227 27.0446C3.43433 26.7008 3.44004 26.3398 3.53877 25.999L4.59861 22.2557C3.15213 19.6172 2.66458 16.5533 3.22793 13.5884C3.81847 10.4803 5.52318 7.69466 8.02203 5.75441Z" fill="#1C1C1C"/>
<path fill-rule="evenodd" clip-rule="evenodd" d="M12.4206 10.5013L13.8408 12.9777C13.8416 12.9794 13.842 12.9812 13.842 12.9831C13.842 12.9852 13.8414 12.9872 13.8404 12.989C13.8404 12.9891 13.8405 12.9889 13.8404 12.989L12.6671 14.9488C12.4991 15.2294 12.4789 15.5743 12.6129 15.8725C13.3151 17.4345 14.5655 18.685 16.1275 19.3871C16.4258 19.5212 16.7707 19.501 17.0512 19.333L19.0107 18.1598C19.0106 18.1598 19.0108 18.1597 19.0107 18.1598C19.0125 18.1588 19.0149 18.1581 19.017 18.158C19.0188 18.158 19.0207 18.1584 19.0224 18.1592L21.4984 19.5793C21.4753 20.2109 21.2149 20.8119 20.7673 21.261C20.3008 21.7293 19.6685 21.9948 19.0076 22C17.8244 22.0027 16.6523 21.7717 15.5585 21.3202C14.4641 20.8685 13.4696 20.2049 12.6324 19.3677C11.7951 18.5304 11.1316 17.536 10.6798 16.4415C10.2282 15.3472 9.99714 14.1745 10 12.9906C10.0025 12.3293 10.2669 11.6959 10.7354 11.2291C11.1852 10.7809 11.7879 10.5214 12.4206 10.5013ZM12.4966 8.50003C12.8276 8.49819 13.153 8.5852 13.439 8.75201C13.7238 8.91817 13.959 9.15743 14.1203 9.44496L15.58 11.99L15.5846 11.9982C15.7575 12.3063 15.8462 12.6545 15.8419 13.0078C15.8375 13.3611 15.7402 13.707 15.5598 14.0107L15.558 14.0137L14.667 15.5019C15.1059 16.2624 15.7377 16.8941 16.4982 17.333L17.9863 16.4421L17.9893 16.4403C18.2931 16.2598 18.639 16.1626 18.9923 16.1582C19.3455 16.1538 19.6937 16.2425 20.0018 16.4154L20.01 16.4201L22.555 17.8797C22.8426 18.041 23.0819 18.2762 23.2481 18.5611C23.4153 18.8478 23.5023 19.1742 23.5 19.5061C23.5 19.5067 23.5 19.5074 23.5 19.508L22.5 19.5L23.5 19.5036C23.5 19.5044 23.5 19.5052 23.5 19.5061C23.4952 20.6936 23.0224 21.8314 22.1841 22.6727C21.3452 23.5146 20.2081 23.9916 19.0196 24L19.015 24C17.5675 24.0037 16.1335 23.7212 14.7955 23.1689C13.4575 22.6167 12.2417 21.8055 11.2182 20.7819C10.1946 19.7583 9.38338 18.5426 8.83111 17.2046C8.27884 15.8665 7.99641 14.4326 8.00003 12.985L8.00004 12.984C8.00429 11.7933 8.48027 10.6528 9.32373 9.81236C10.1664 8.97274 11.3071 8.50094 12.4966 8.50003ZM12.4966 8.50003C12.4951 8.50004 12.4936 8.50005 12.492 8.50006L12.5 9.50003L12.5 8.50003C12.4989 8.50003 12.4977 8.50003 12.4966 8.50003Z" fill="#1C1C1C"/>
</svg>
